<?xml version="1.0" encoding="utf-8"?>
<!-- Generator: Adobe Illustrator 26.3.1, SVG Export Plug-In . SVG Version: 6.00 Build 0)  -->
<svg version="1.1" id="Layer_1" xmlns="http://www.w3.org/2000/svg" xmlns:xlink="http://www.w3.org/1999/xlink" x="0px" y="0px"
	 viewBox="0 0 83.2 100" enable-background="new 0 0 83.2 100" xml:space="preserve">
<g>
	<g>
		<path d="M83.2,91.4v8.6H0v-8.6c0-16.2,9.3-30.3,22.8-37.1c5.3,3.8,11.8,6,18.8,6c7,0,13.5-2.2,18.8-6
			C73.9,61.1,83.2,75.1,83.2,91.4z"/>
	</g>
	<g>
		<path d="M69.5,27.9c0,10.3-5.7,19.4-14,24.2c-4.1,2.4-8.8,3.7-13.9,3.7c-5,0-9.8-1.4-13.9-3.7c-8.4-4.8-14.1-13.9-14.1-24.2
			C13.6,12.5,26.2,0,41.6,0C57,0,69.5,12.5,69.5,27.9z"/>
	</g>
</g>
</svg>
