<?xml version="1.0" encoding="utf-8"?>
<!-- Generator: Adobe Illustrator 26.3.1, SVG Export Plug-In . SVG Version: 6.00 Build 0)  -->
<svg version="1.1" id="Layer_1" xmlns="http://www.w3.org/2000/svg" xmlns:xlink="http://www.w3.org/1999/xlink" x="0px" y="0px"
	 viewBox="0 0 100 100" enable-background="new 0 0 100 100" xml:space="preserve">
<g>
	<path fill="#191E15" d="M100,28.3c-0.3-8.3-3.9-15.8-10.2-21.2C78.6-2.7,61.3-2.3,50.4,7.9c-0.9,0.9-1.8,1.8-2.6,2.7
		c-4.4,5.3-10.5,9.1-17.6,10.9c-8,2-15.1,6.3-20.5,12.6c-13,14.9-13,37.3,0,52.2c7.4,8.4,17.6,13.3,28.7,13.7c0.5,0,0.9,0,1.3,0
		c5.2,0,10.4-1,15.2-3c4.8-2,9.2-4.9,12.9-8.6c5.1-5.1,8.7-11.4,10.5-18.4c1.9-7.4,5.6-13.5,10.7-17.7c0.8-0.7,1.6-1.3,2.3-2.1
		C97.2,44.4,100.3,36.5,100,28.3z M89.7,48.5c-0.7,0.7-1.4,1.3-2.1,1.9c-5.6,4.5-9.5,11.1-11.5,18.9c-0.8,3.3-2.1,6.4-3.7,9.3
		c-1.7,2.9-3.7,5.6-6.1,8c-7.3,7.3-17.4,11.3-27.7,10.9c-10.5-0.3-20-4.9-27-12.8c-12.2-14-12.2-35.1,0-49
		c5.1-5.9,11.8-10,19.3-11.8C38.4,22,45,17.9,49.7,12.2c0.7-0.9,1.5-1.7,2.3-2.5c5.1-4.9,11.9-7.3,18.6-7.3c6.3,0,12.6,2.2,17.7,6.5
		c5.8,5,9.1,11.9,9.4,19.5C97.9,35.9,95,43.2,89.7,48.5z"/>
	<path fill="#2E7231" d="M97.6,28.4c-0.3-7.6-3.6-14.5-9.4-19.5c-5-4.3-11.3-6.5-17.7-6.5c-6.7,0-13.4,2.4-18.6,7.3
		c-0.8,0.8-1.6,1.6-2.3,2.5C45,17.9,38.4,22,30.8,23.9c-7.5,1.8-14.1,5.9-19.3,11.8c-12.2,14-12.2,35.1,0,49
		c6.9,7.9,16.5,12.5,27,12.8c10.3,0.3,20.4-3.6,27.7-10.9c2.4-2.4,4.4-5.1,6.1-8c1.6-2.9,2.9-6,3.7-9.3c2-7.9,6-14.4,11.5-18.9
		c0.7-0.6,1.4-1.2,2.1-1.9C95,43.2,97.9,35.9,97.6,28.4z M86.3,45.1c-0.6,0.6-1.1,1.1-1.7,1.6c-6.4,5.2-10.9,12.6-13.2,21.5
		C70,73.9,67,79.1,62.9,83.2c-6.1,6.1-14.5,9.5-23.1,9.5c-0.4,0-0.7,0-1.1,0c-9.1-0.3-17.5-4.3-23.5-11.2C4.6,69.4,4.6,51,15.2,38.8
		c4.5-5.1,10.3-8.7,16.8-10.3c8.6-2.1,16.1-6.7,21.5-13.3c0.6-0.7,1.3-1.4,1.9-2.1c4.1-3.9,9.5-6,15.3-6c5.4,0,10.5,1.9,14.5,5.3
		c4.7,4.1,7.5,9.8,7.7,16C93,34.7,90.7,40.7,86.3,45.1z"/>
	<path fill="#7CAF5A" d="M85.1,12.5c-4-3.4-9.1-5.3-14.5-5.3c-5.8,0-11.2,2.1-15.3,6c-0.7,0.7-1.3,1.3-1.9,2.1
		C48,21.8,40.6,26.4,31.9,28.5c-6.5,1.6-12.3,5.2-16.8,10.3C4.6,51,4.6,69.4,15.2,81.5c6,6.9,14.4,10.9,23.5,11.2c0.3,0,0.7,0,1.1,0
		c8.6,0,17-3.5,23.1-9.5c4.2-4.2,7.1-9.4,8.5-15.1c2.2-8.9,6.8-16.3,13.2-21.5c0.6-0.5,1.2-1,1.7-1.6c4.3-4.3,6.7-10.4,6.5-16.5
		C92.6,22.4,89.9,16.7,85.1,12.5z M84.6,43.4c-0.5,0.5-1,1-1.6,1.4c-6.8,5.5-11.6,13.4-14,22.8c-0.7,2.6-1.7,5.1-3,7.5
		c-1.3,2.4-3,4.5-4.9,6.5c-5.6,5.6-13.4,8.8-21.4,8.8c-0.3,0-0.7,0-1,0c-8.5-0.3-16.2-4-21.8-10.4c-9.8-11.3-9.8-28.3,0-39.6
		c4.1-4.7,9.5-8,15.5-9.5c9.2-2.3,17-7.1,22.7-14.1c0.6-0.7,1.2-1.3,1.8-1.9c3.6-3.4,8.5-5.3,13.6-5.3c4.8,0,9.4,1.7,12.9,4.7
		c4.2,3.7,6.7,8.8,6.9,14.3C90.6,34.2,88.5,39.5,84.6,43.4z"/>
	<path fill="#E2DE6D" d="M83.5,14.4c-3.5-3.1-8.1-4.7-12.9-4.7c-5.1,0-10,1.9-13.6,5.3c-0.6,0.6-1.2,1.2-1.8,1.9
		c-5.7,6.9-13.6,11.8-22.7,14.1c-6,1.5-11.4,4.8-15.5,9.5C7.2,51.7,7.2,68.7,17,80c5.6,6.4,13.3,10.1,21.8,10.4c0.3,0,0.7,0,1,0
		c8,0,15.8-3.2,21.4-8.8c1.9-1.9,3.6-4.1,4.9-6.5c1.3-2.3,2.3-4.9,3-7.5c2.4-9.4,7.2-17.3,14-22.8c0.5-0.4,1.1-0.9,1.6-1.4
		c3.9-3.9,6-9.2,5.8-14.7C90.2,23.1,87.8,18,83.5,14.4z M59.8,55.4c-0.7,4.8-3.2,9.5-7.1,13.4c-3.9,3.9-8.6,6.4-13.4,7.1
		c-0.9,0.1-1.8,0.2-2.7,0.2c-3.8,0-7.1-1.3-9.5-3.7c-3-3-4.2-7.3-3.5-12.3c0.7-4.8,3.3-9.5,7.1-13.4c3.9-3.9,8.6-6.4,13.4-7.1
		c4.9-0.7,9.3,0.5,12.3,3.5C59.3,46.1,60.5,50.5,59.8,55.4z"/>
	<path fill="#EDE8B0" d="M79.7,16.6c13.9,9,7.4,23.7,1,25.2L79.7,16.6z"/>
	<path fill="#C6C166" d="M31.1,34c-11,3.3-24.7,20-16.8,36.4c9.6,19.9,31.2,16.3,31.2,16.3L31.1,34z"/>
	<path fill="#191E15" d="M56.3,43.1c-3-3-7.3-4.2-12.3-3.5c-4.8,0.7-9.5,3.3-13.4,7.1c-3.9,3.9-6.4,8.6-7.1,13.4
		C22.8,65,24,69.4,27,72.4c2.4,2.4,5.7,3.7,9.5,3.7c0.9,0,1.8-0.1,2.7-0.2c4.8-0.7,9.5-3.2,13.4-7.1c3.9-3.9,6.4-8.6,7.1-13.4
		C60.5,50.5,59.3,46.1,56.3,43.1z M57.4,55c-0.7,4.3-2.9,8.6-6.4,12.1c-3.5,3.5-7.8,5.8-12.1,6.4c-4.1,0.6-7.8-0.4-10.2-2.8
		c-2.4-2.4-3.4-6.1-2.8-10.2c0.7-4.3,2.9-8.6,6.4-12.1c3.5-3.5,7.8-5.8,12.1-6.4c0.8-0.1,1.6-0.2,2.4-0.2c3.1,0,5.9,1,7.8,3
		C57,47.2,58,50.9,57.4,55z"/>
	<path fill="#59473A" d="M57.4,55c-0.7,4.3-2.9,8.6-6.4,12.1c-3.5,3.5-7.8,5.8-12.1,6.4C53.4,60,51.5,42.7,51.5,42.7
		c1.2,0.5,2.2,1.2,3.1,2.1C57,47.2,58,50.9,57.4,55z"/>
	<path fill="#3A2B20" d="M38.9,73.5c-4.1,0.6-7.8-0.4-10.2-2.8c-2.4-2.4-3.4-6.1-2.8-10.2c0.7-4.3,2.9-8.6,6.4-12.1
		c3.5-3.5,7.8-5.8,12.1-6.4c0.8-0.1,1.6-0.2,2.4-0.2c1.7,0,3.3,0.3,4.8,0.9C51.5,42.7,53.4,60,38.9,73.5z"/>
</g>
</svg>
