<?xml version="1.0" encoding="utf-8"?>
<!-- Generator: Adobe Illustrator 26.3.1, SVG Export Plug-In . SVG Version: 6.00 Build 0)  -->
<svg version="1.1" id="Layer_1" xmlns="http://www.w3.org/2000/svg" xmlns:xlink="http://www.w3.org/1999/xlink" x="0px" y="0px"
	 viewBox="0 0 92.3 92.3" enable-background="new 0 0 92.3 92.3" xml:space="preserve">
<path fill="#000" d="M90.4,81.3l-21-21c4.5-6.2,7.1-13.9,7.1-22.1C76.5,17.2,59.3,0,38.2,0C17.2,0,0,17.2,0,38.2c0,21.1,17.2,38.2,38.2,38.2
	c8.2,0,15.9-2.6,22.1-7.1l21,21c1.3,1.2,2.9,1.9,4.5,1.9c1.6,0,3.3-0.6,4.5-1.9C92.9,87.9,92.9,83.8,90.4,81.3z M60.1,51.1
	c-1.1,1.9-2.4,3.6-4,5.1c-1.5,1.5-3.2,2.9-5.1,4c-3.8,2.2-8.2,3.5-12.8,3.5c-14,0-25.4-11.4-25.4-25.4c0-14,11.4-25.4,25.4-25.4
	c14,0,25.4,11.4,25.4,25.4C63.6,42.9,62.4,47.3,60.1,51.1z"/>
</svg>
